<svg id="visual" viewBox="0 0 900 600" width="900" height="600" xmlns="http://www.w3.org/2000/svg" xmlns:xlink="http://www.w3.org/1999/xlink" version="1.1"><g stroke-width="1" stroke-linejoin="bevel"><path d="M494 312L547 333L532 275Z" fill="#205a7a" stroke="#205a7a"></path><path d="M610 315L566 251L532 275Z" fill="#081a28" stroke="#081a28"></path><path d="M547 333L610 315L532 275Z" fill="#112e42" stroke="#112e42"></path><path d="M489 416L571 402L547 333Z" fill="#205a7a" stroke="#205a7a"></path><path d="M547 333L580 403L610 315Z" fill="#19435d" stroke="#19435d"></path><path d="M371 318L432 362L494 312Z" fill="#205a7a" stroke="#205a7a"></path><path d="M494 312L489 416L547 333Z" fill="#081a28" stroke="#081a28"></path><path d="M571 402L580 403L547 333Z" fill="#205a7a" stroke="#205a7a"></path><path d="M566 251L492 203L532 275Z" fill="#00101c" stroke="#00101c"></path><path d="M532 275L492 203L494 312Z" fill="#00101c" stroke="#00101c"></path><path d="M432 362L489 416L494 312Z" fill="#246688" stroke="#246688"></path><path d="M573 514L632 466L580 403Z" fill="#297ea6" stroke="#297ea6"></path><path d="M382 403L489 418L489 416Z" fill="#00101c" stroke="#00101c"></path><path d="M489 416L489 418L571 402Z" fill="#277297" stroke="#277297"></path><path d="M580 403L653 325L610 315Z" fill="#19435d" stroke="#19435d"></path><path d="M610 315L643 241L566 251Z" fill="#205a7a" stroke="#205a7a"></path><path d="M653 325L643 241L610 315Z" fill="#0c2435" stroke="#0c2435"></path><path d="M566 251L630 180L492 203Z" fill="#277297" stroke="#277297"></path><path d="M580 403L674 333L653 325Z" fill="#081a28" stroke="#081a28"></path><path d="M653 325L674 333L643 241Z" fill="#297ea6" stroke="#297ea6"></path><path d="M414 185L371 318L494 312Z" fill="#205a7a" stroke="#205a7a"></path><path d="M432 362L382 403L489 416Z" fill="#246688" stroke="#246688"></path><path d="M642 188L630 180L643 241Z" fill="#205a7a" stroke="#205a7a"></path><path d="M643 241L630 180L566 251Z" fill="#277297" stroke="#277297"></path><path d="M726 217L642 188L643 241Z" fill="#205a7a" stroke="#205a7a"></path><path d="M419 152L414 185L492 203Z" fill="#112e42" stroke="#112e42"></path><path d="M492 203L414 185L494 312Z" fill="#15384f" stroke="#15384f"></path><path d="M371 318L377 386L432 362Z" fill="#00101c" stroke="#00101c"></path><path d="M447 505L492 476L489 418Z" fill="#277297" stroke="#277297"></path><path d="M489 418L492 476L571 402Z" fill="#19435d" stroke="#19435d"></path><path d="M580 403L632 466L674 333Z" fill="#1d4e6b" stroke="#1d4e6b"></path><path d="M377 386L382 403L432 362Z" fill="#0c2435" stroke="#0c2435"></path><path d="M479 110L419 152L492 203Z" fill="#00101c" stroke="#00101c"></path><path d="M414 185L342 227L371 318Z" fill="#00101c" stroke="#00101c"></path><path d="M573 514L580 403L571 402Z" fill="#205a7a" stroke="#205a7a"></path><path d="M352 121L342 227L414 185Z" fill="#205a7a" stroke="#205a7a"></path><path d="M371 318L334 368L377 386Z" fill="#00101c" stroke="#00101c"></path><path d="M301 348L334 368L371 318Z" fill="#1d4e6b" stroke="#1d4e6b"></path><path d="M377 386L334 368L382 403Z" fill="#277297" stroke="#277297"></path><path d="M630 180L479 110L492 203Z" fill="#19435d" stroke="#19435d"></path><path d="M492 476L573 514L571 402Z" fill="#00101c" stroke="#00101c"></path><path d="M318 479L447 505L382 403Z" fill="#1d4e6b" stroke="#1d4e6b"></path><path d="M382 403L447 505L489 418Z" fill="#246688" stroke="#246688"></path><path d="M492 476L485 600L573 514Z" fill="#15384f" stroke="#15384f"></path><path d="M674 333L726 217L643 241Z" fill="#19435d" stroke="#19435d"></path><path d="M642 188L655 113L630 180Z" fill="#19435d" stroke="#19435d"></path><path d="M630 180L525 41L479 110Z" fill="#1d4e6b" stroke="#1d4e6b"></path><path d="M766 252L726 217L674 333Z" fill="#00101c" stroke="#00101c"></path><path d="M342 227L301 348L371 318Z" fill="#19435d" stroke="#19435d"></path><path d="M334 368L302 412L382 403Z" fill="#277297" stroke="#277297"></path><path d="M726 217L719 181L642 188Z" fill="#19435d" stroke="#19435d"></path><path d="M701 136L655 113L642 188Z" fill="#297ea6" stroke="#297ea6"></path><path d="M352 121L306 221L342 227Z" fill="#277297" stroke="#277297"></path><path d="M342 227L306 221L301 348Z" fill="#00101c" stroke="#00101c"></path><path d="M352 121L414 185L419 152Z" fill="#081a28" stroke="#081a28"></path><path d="M759 476L734 434L632 466Z" fill="#246688" stroke="#246688"></path><path d="M632 466L734 434L674 333Z" fill="#0c2435" stroke="#0c2435"></path><path d="M605 600L622 531L573 514Z" fill="#277297" stroke="#277297"></path><path d="M573 514L622 531L632 466Z" fill="#277297" stroke="#277297"></path><path d="M719 181L701 136L642 188Z" fill="#277297" stroke="#277297"></path><path d="M726 217L813 174L719 181Z" fill="#0c2435" stroke="#0c2435"></path><path d="M719 181L772 78L701 136Z" fill="#0c2435" stroke="#0c2435"></path><path d="M778 330L766 252L674 333Z" fill="#15384f" stroke="#15384f"></path><path d="M301 348L302 412L334 368Z" fill="#00101c" stroke="#00101c"></path><path d="M734 434L778 330L674 333Z" fill="#277297" stroke="#277297"></path><path d="M398 39L352 121L419 152Z" fill="#205a7a" stroke="#205a7a"></path><path d="M655 113L525 41L630 180Z" fill="#205a7a" stroke="#205a7a"></path><path d="M479 110L398 39L419 152Z" fill="#297ea6" stroke="#297ea6"></path><path d="M650 55L525 41L655 113Z" fill="#0c2435" stroke="#0c2435"></path><path d="M810 424L795 329L778 330Z" fill="#205a7a" stroke="#205a7a"></path><path d="M778 330L795 329L766 252Z" fill="#081a28" stroke="#081a28"></path><path d="M302 412L318 479L382 403Z" fill="#112e42" stroke="#112e42"></path><path d="M753 76L650 55L655 113Z" fill="#112e42" stroke="#112e42"></path><path d="M622 531L759 476L632 466Z" fill="#1d4e6b" stroke="#1d4e6b"></path><path d="M734 434L810 424L778 330Z" fill="#112e42" stroke="#112e42"></path><path d="M481 600L485 600L447 505Z" fill="#277297" stroke="#277297"></path><path d="M447 505L485 600L492 476Z" fill="#15384f" stroke="#15384f"></path><path d="M622 531L780 517L759 476Z" fill="#112e42" stroke="#112e42"></path><path d="M337 600L481 600L447 505Z" fill="#15384f" stroke="#15384f"></path><path d="M419 26L398 39L479 110Z" fill="#277297" stroke="#277297"></path><path d="M301 348L247 413L302 412Z" fill="#1d4e6b" stroke="#1d4e6b"></path><path d="M302 412L247 413L318 479Z" fill="#0c2435" stroke="#0c2435"></path><path d="M220 303L247 413L301 348Z" fill="#1d4e6b" stroke="#1d4e6b"></path><path d="M352 121L252 189L306 221Z" fill="#112e42" stroke="#112e42"></path><path d="M306 221L220 303L301 348Z" fill="#277297" stroke="#277297"></path><path d="M260 87L252 189L352 121Z" fill="#15384f" stroke="#15384f"></path><path d="M461 0L419 26L479 110Z" fill="#0c2435" stroke="#0c2435"></path><path d="M461 0L479 110L525 41Z" fill="#00101c" stroke="#00101c"></path><path d="M485 600L605 600L573 514Z" fill="#1d4e6b" stroke="#1d4e6b"></path><path d="M252 189L220 303L306 221Z" fill="#19435d" stroke="#19435d"></path><path d="M759 476L810 424L734 434Z" fill="#1d4e6b" stroke="#1d4e6b"></path><path d="M571 0L525 0L525 41Z" fill="#0c2435" stroke="#0c2435"></path><path d="M650 55L571 0L525 41Z" fill="#246688" stroke="#246688"></path><path d="M605 600L638 600L622 531Z" fill="#0c2435" stroke="#0c2435"></path><path d="M759 476L780 517L810 424Z" fill="#246688" stroke="#246688"></path><path d="M525 0L461 0L525 41Z" fill="#19435d" stroke="#19435d"></path><path d="M766 252L813 174L726 217Z" fill="#297ea6" stroke="#297ea6"></path><path d="M701 136L753 76L655 113Z" fill="#1d4e6b" stroke="#1d4e6b"></path><path d="M830 191L813 174L766 252Z" fill="#112e42" stroke="#112e42"></path><path d="M830 191L766 252L900 264Z" fill="#277297" stroke="#277297"></path><path d="M210 531L330 564L318 479Z" fill="#112e42" stroke="#112e42"></path><path d="M318 479L330 564L447 505Z" fill="#00101c" stroke="#00101c"></path><path d="M772 78L753 76L701 136Z" fill="#081a28" stroke="#081a28"></path><path d="M650 55L705 0L571 0Z" fill="#00101c" stroke="#00101c"></path><path d="M900 264L766 252L795 329Z" fill="#19435d" stroke="#19435d"></path><path d="M813 174L772 78L719 181Z" fill="#15384f" stroke="#15384f"></path><path d="M766 600L780 517L622 531Z" fill="#205a7a" stroke="#205a7a"></path><path d="M461 0L399 0L419 26Z" fill="#297ea6" stroke="#297ea6"></path><path d="M419 26L399 0L398 39Z" fill="#081a28" stroke="#081a28"></path><path d="M303 0L260 87L352 121Z" fill="#00101c" stroke="#00101c"></path><path d="M900 106L772 78L813 174Z" fill="#00101c" stroke="#00101c"></path><path d="M753 76L705 0L650 55Z" fill="#081a28" stroke="#081a28"></path><path d="M303 0L352 121L398 39Z" fill="#0c2435" stroke="#0c2435"></path><path d="M144 275L176 323L220 303Z" fill="#0c2435" stroke="#0c2435"></path><path d="M329 600L337 600L330 564Z" fill="#15384f" stroke="#15384f"></path><path d="M330 564L337 600L447 505Z" fill="#19435d" stroke="#19435d"></path><path d="M220 303L176 323L247 413Z" fill="#112e42" stroke="#112e42"></path><path d="M210 531L329 600L330 564Z" fill="#15384f" stroke="#15384f"></path><path d="M186 210L220 303L252 189Z" fill="#15384f" stroke="#15384f"></path><path d="M210 531L318 479L247 413Z" fill="#112e42" stroke="#112e42"></path><path d="M173 113L186 210L252 189Z" fill="#277297" stroke="#277297"></path><path d="M745 0L705 0L753 76Z" fill="#246688" stroke="#246688"></path><path d="M875 453L900 323L810 424Z" fill="#246688" stroke="#246688"></path><path d="M810 424L900 323L795 329Z" fill="#0c2435" stroke="#0c2435"></path><path d="M830 191L900 172L813 174Z" fill="#081a28" stroke="#081a28"></path><path d="M900 323L900 264L795 329Z" fill="#1d4e6b" stroke="#1d4e6b"></path><path d="M772 78L745 0L753 76Z" fill="#112e42" stroke="#112e42"></path><path d="M854 0L745 0L772 78Z" fill="#15384f" stroke="#15384f"></path><path d="M780 517L875 453L810 424Z" fill="#297ea6" stroke="#297ea6"></path><path d="M638 600L766 600L622 531Z" fill="#112e42" stroke="#112e42"></path><path d="M900 568L900 462L875 453Z" fill="#246688" stroke="#246688"></path><path d="M900 264L900 248L830 191Z" fill="#277297" stroke="#277297"></path><path d="M399 0L303 0L398 39Z" fill="#15384f" stroke="#15384f"></path><path d="M260 87L173 113L252 189Z" fill="#0c2435" stroke="#0c2435"></path><path d="M126 230L144 275L186 210Z" fill="#112e42" stroke="#112e42"></path><path d="M186 210L144 275L220 303Z" fill="#081a28" stroke="#081a28"></path><path d="M137 416L210 531L247 413Z" fill="#00101c" stroke="#00101c"></path><path d="M137 416L247 413L176 323Z" fill="#1d4e6b" stroke="#1d4e6b"></path><path d="M900 248L900 172L830 191Z" fill="#277297" stroke="#277297"></path><path d="M202 37L173 113L260 87Z" fill="#1d4e6b" stroke="#1d4e6b"></path><path d="M900 568L875 453L780 517Z" fill="#297ea6" stroke="#297ea6"></path><path d="M875 453L900 462L900 323Z" fill="#246688" stroke="#246688"></path><path d="M113 335L137 416L176 323Z" fill="#246688" stroke="#246688"></path><path d="M104 143L126 230L186 210Z" fill="#00101c" stroke="#00101c"></path><path d="M144 275L113 335L176 323Z" fill="#15384f" stroke="#15384f"></path><path d="M71 266L113 335L144 275Z" fill="#246688" stroke="#246688"></path><path d="M766 600L827 600L780 517Z" fill="#0c2435" stroke="#0c2435"></path><path d="M303 0L202 37L260 87Z" fill="#081a28" stroke="#081a28"></path><path d="M173 113L132 120L186 210Z" fill="#205a7a" stroke="#205a7a"></path><path d="M900 172L900 106L813 174Z" fill="#00101c" stroke="#00101c"></path><path d="M45 527L189 566L210 531Z" fill="#112e42" stroke="#112e42"></path><path d="M210 531L189 566L329 600Z" fill="#19435d" stroke="#19435d"></path><path d="M202 37L132 120L173 113Z" fill="#205a7a" stroke="#205a7a"></path><path d="M126 230L71 266L144 275Z" fill="#112e42" stroke="#112e42"></path><path d="M303 0L204 0L202 37Z" fill="#0c2435" stroke="#0c2435"></path><path d="M202 37L98 106L132 120Z" fill="#277297" stroke="#277297"></path><path d="M900 106L854 0L772 78Z" fill="#0c2435" stroke="#0c2435"></path><path d="M179 600L185 600L189 566Z" fill="#246688" stroke="#246688"></path><path d="M189 566L185 600L329 600Z" fill="#297ea6" stroke="#297ea6"></path><path d="M179 600L189 566L103 600Z" fill="#246688" stroke="#246688"></path><path d="M98 106L104 143L132 120Z" fill="#15384f" stroke="#15384f"></path><path d="M132 120L104 143L186 210Z" fill="#081a28" stroke="#081a28"></path><path d="M103 600L189 566L45 527Z" fill="#19435d" stroke="#19435d"></path><path d="M827 600L900 568L780 517Z" fill="#0c2435" stroke="#0c2435"></path><path d="M204 0L189 0L202 37Z" fill="#205a7a" stroke="#205a7a"></path><path d="M34 191L71 266L126 230Z" fill="#19435d" stroke="#19435d"></path><path d="M61 401L66 419L137 416Z" fill="#1d4e6b" stroke="#1d4e6b"></path><path d="M189 0L98 106L202 37Z" fill="#277297" stroke="#277297"></path><path d="M104 143L34 191L126 230Z" fill="#246688" stroke="#246688"></path><path d="M61 401L137 416L113 335Z" fill="#205a7a" stroke="#205a7a"></path><path d="M827 600L900 600L900 568Z" fill="#277297" stroke="#277297"></path><path d="M0 348L61 401L113 335Z" fill="#0c2435" stroke="#0c2435"></path><path d="M900 106L900 0L854 0Z" fill="#246688" stroke="#246688"></path><path d="M0 132L34 191L104 143Z" fill="#246688" stroke="#246688"></path><path d="M71 266L0 348L113 335Z" fill="#15384f" stroke="#15384f"></path><path d="M45 527L210 531L137 416Z" fill="#297ea6" stroke="#297ea6"></path><path d="M45 527L137 416L66 419Z" fill="#246688" stroke="#246688"></path><path d="M0 262L0 348L71 266Z" fill="#19435d" stroke="#19435d"></path><path d="M61 401L0 411L66 419Z" fill="#277297" stroke="#277297"></path><path d="M0 261L0 262L71 266Z" fill="#0c2435" stroke="#0c2435"></path><path d="M34 191L0 261L71 266Z" fill="#19435d" stroke="#19435d"></path><path d="M0 411L45 527L66 419Z" fill="#081a28" stroke="#081a28"></path><path d="M0 348L0 411L61 401Z" fill="#0c2435" stroke="#0c2435"></path><path d="M98 106L0 132L104 143Z" fill="#0c2435" stroke="#0c2435"></path><path d="M34 191L0 132L0 261Z" fill="#277297" stroke="#277297"></path><path d="M0 26L0 132L98 106Z" fill="#19435d" stroke="#19435d"></path><path d="M189 0L61 0L98 106Z" fill="#205a7a" stroke="#205a7a"></path><path d="M0 411L0 577L45 527Z" fill="#205a7a" stroke="#205a7a"></path><path d="M45 527L0 577L103 600Z" fill="#15384f" stroke="#15384f"></path><path d="M61 0L0 26L98 106Z" fill="#277297" stroke="#277297"></path><path d="M0 577L0 600L103 600Z" fill="#19435d" stroke="#19435d"></path><path d="M61 0L0 0L0 26Z" fill="#112e42" stroke="#112e42"></path></g></svg>